# xmcd CD database file
#
# Track frame offsets:
#	150
#	19900
#	33210
#	50767
#	70216
#	89834
#	112171
#	129930
#	149091
#	171344
#	191295
#	213043
#	232378
#	251075
#	267834
#	292198
#	315189
#	336884
#
# Disc length: 4713 seconds
#
# Revision: 0
# Processed by: cddbd v1.5.2PL0 Copyright (c) Steve Scherf et al.
# Submitted via: CDex 1.70beta2
#
DISCID=1c126712
DTITLE=Hello!Project - ハロー!プロジェクトの全曲から集めちゃいました! Vol.4 小出祐介 (Base Ball Bear) 編
DYEAR=2014
DGENRE=Hello!Project
TTITLE0=蝉/Berryz工房
TTITLE1=恋はひっぱりだこ(from 「2007 桜満開 Berryz工房ライブ」)/嗣永桃子 (Berryz工房) (LIVE音源)
TTITLE2=ピラッ!乙女の願い/プッチモニV
TTITLE3=都会っ子 純情/℃-ute
TTITLE4=ブギートレイン'03/藤本美貴
TTITLE5=チョコレート魂/松浦亜弥
TTITLE6=君の戦法/℃-ute(中島・岡井・萩原)
TTITLE7=イチャ イチャ Summer/GAM
TTITLE8=くちづけのその後/モーニング娘。
TTITLE9=赤い日記帳(後藤version)/後藤真希
TTITLE10=夕暮れ/松浦亜弥
TTITLE11=AS FOR ONE DAY/モーニング娘。
TTITLE12=Crazy 完全な大人/℃-ute
TTITLE13=エキゾなDISCO/後藤真希
TTITLE14=Magic of Love/太陽とシスコムーン
TTITLE15=さぼり/Berryz工房
TTITLE16=I WISH/モーニング娘。
TTITLE17=寝る子はキュート/℃-ute (劇団ゲキハロ第2回公演「寝る子は℃-ute」:舞台音源)
EXTD=YEAR: 2014
EXTT0=
EXTT1=
EXTT2=
EXTT3=
EXTT4=
EXTT5=
EXTT6=
EXTT7=
EXTT8=
EXTT9=
EXTT10=
EXTT11=
EXTT12=
EXTT13=
EXTT14=
EXTT15=
EXTT16=
EXTT17=
PLAYORDER=
